<svg width="60" height="59" viewBox="0 0 60 59" fill="none" xmlns="http://www.w3.org/2000/svg">
<g filter="url(#filter0_d)">
<circle cx="30" cy="29.0012" r="28.8" fill="white"/>
</g>
<path fill-rule="evenodd" clip-rule="evenodd" d="M39.3003 38.1173V41.7826H40.3941V38.1173H41.4507V37.0312H38.2374V38.1173H39.3003Z" fill="#9F083E"/>
<path fill-rule="evenodd" clip-rule="evenodd" d="M33.7655 40.1463H32.7768L33.265 38.8973L33.7655 40.1463ZM34.3771 41.7822H35.4585V41.6057L33.5058 36.9697H33.03L31.0835 41.6057V41.7822H32.1649L32.4183 41.1849H34.1238L34.3771 41.7822Z" fill="#9F083E"/>
<path fill-rule="evenodd" clip-rule="evenodd" d="M26.7353 37.0312H25.623V41.7826H28.3049V40.6898H26.7353V37.0312Z" fill="#9F083E"/>
<path fill-rule="evenodd" clip-rule="evenodd" d="M21.1503 40.1463H20.1616L20.6498 38.8973L21.1503 40.1463ZM21.7623 41.7822H22.8437V41.6057L20.891 36.9697H20.4152L18.4687 41.6057V41.7822H19.5501L19.8034 41.1849H21.509L21.7623 41.7822Z" fill="#9F083E"/>
<path fill-rule="evenodd" clip-rule="evenodd" d="M32.1796 16.3281C32.3404 16.3281 32.4878 16.4104 32.5681 16.5485L42.435 33.4777C42.4725 33.544 42.4939 33.621 42.4939 33.698C42.4939 33.9422 42.293 34.1412 42.0466 34.1412H33.9023C33.7415 34.1439 33.5942 34.059 33.5138 33.9209L26.3286 21.589C26.2885 21.5227 26.2322 21.4669 26.1652 21.4271C25.9509 21.305 25.6776 21.3767 25.5544 21.589L19.9659 31.179C19.9284 31.2454 19.907 31.3224 19.907 31.3993C19.907 31.6435 20.1079 31.8426 20.3544 31.8426C20.3544 31.8426 28.3223 31.8523 28.4972 31.8537C28.5 31.8537 28.5029 31.854 28.5058 31.8544L28.9211 31.8547C29.0816 31.8547 29.2271 31.9403 29.3075 32.0785L30.0969 33.4799C30.2202 33.6918 30.1471 33.9642 29.9342 34.0863C29.8671 34.1249 29.7893 34.1449 29.7127 34.1459L23.2279 34.1439H16.3358C16.2581 34.1439 16.1804 34.1227 16.1135 34.0855C15.8991 33.9634 15.8241 33.6927 15.9474 33.4803L25.5544 16.9917C25.5946 16.9254 25.6508 16.8696 25.7178 16.8298C25.9321 16.7077 26.2054 16.7794 26.3286 16.9917L34.8587 31.625C34.9364 31.7603 35.0838 31.8453 35.2445 31.8453H38.0307C38.1084 31.8453 38.1861 31.8267 38.2531 31.7869C38.4674 31.6648 38.5424 31.394 38.4191 31.1817L30.2133 16.9917C30.1757 16.9254 30.1543 16.8484 30.1543 16.7714C30.1543 16.5272 30.3552 16.3282 30.6017 16.3281H32.1796Z" fill="#9F083E"/>
<defs>
<filter id="filter0_d" x="0.983982" y="0.201172" width="58.464" height="58.464" filterUnits="userSpaceOnUse" color-interpolation-filters="sRGB">
<feFlood flood-opacity="0" result="BackgroundImageFix"/>
<feColorMatrix in="SourceAlpha" type="matrix" values="0 0 0 0 0 0 0 0 0 0 0 0 0 0 0 0 0 0 127 0"/>
<feOffset dx="0.215999" dy="0.431999"/>
<feGaussianBlur stdDeviation="0.215999"/>
<feColorMatrix type="matrix" values="0 0 0 0 0 0 0 0 0 0 0 0 0 0 0 0 0 0 0.4 0"/>
<feBlend mode="normal" in2="BackgroundImageFix" result="effect1_dropShadow"/>
<feBlend mode="normal" in="SourceGraphic" in2="effect1_dropShadow" result="shape"/>
</filter>
</defs>
</svg>
